<?xml version="1.0" ?><svg enable-background="new 0 0 40 40" id="Слой_1" version="1.1" viewBox="0 0 40 40" xml:space="preserve" xmlns="http://www.w3.org/2000/svg" xmlns:xlink="http://www.w3.org/1999/xlink"><g><path d="M34.9,29.3l-7.4-2.9c1.6-1.8,2.8-4.1,3.5-6.8c2,0,3.5-1.6,3.5-3.6v-1.9c0-2-1.6-3.6-3.5-3.6   C29.5,4.3,25.2,0.1,20.3,0c0,0-0.1,0-0.1,0H20c-1.6,0-3.2,0.4-4.6,1.3C14.1,2,13,3,12,4.2c-0.1,0.1-0.1,0.1-0.2,0.2   c-1.3,1.6-2.2,3.7-2.8,6c-2,0-3.5,1.7-3.5,3.6V16c0,2,1.6,3.6,3.5,3.6c0.7,2.7,1.9,5.1,3.5,6.9l-7.3,2.8C2.1,30.6,0,33.6,0,37   c0,1.6,1.3,3,3,3h34.3c1.6,0,3-1.3,3-3C40.2,33.6,38.1,30.6,34.9,29.3z M10.8,18.4c-0.1-0.5-0.5-0.8-1-0.8H9.1   c-0.9,0-1.6-0.7-1.6-1.6v-1.9c0-0.9,0.7-1.6,1.6-1.6h0.7c0.5,0,0.9-0.3,1-0.8c0.4-1.8,1-3.5,1.8-4.9L14,8.8   c0.2,0.3,0.5,0.5,0.8,0.5c0.2,0,0.4-0.1,0.5-0.1c0.5-0.3,0.6-0.9,0.3-1.4L14,5c0.5-0.6,1.1-1.1,1.7-1.5L19,8.8   c0.2,0.3,0.5,0.5,0.8,0.5c0.2,0,0.4-0.1,0.5-0.1c0.5-0.3,0.6-0.9,0.3-1.4l-3.3-5.3c0.7-0.3,1.5-0.5,2.3-0.5L24,8.8   c0.2,0.3,0.5,0.5,0.8,0.5c0.2,0,0.4-0.1,0.5-0.1c0.5-0.3,0.6-0.9,0.3-1.4l-3.4-5.4c3.3,1.1,6,4.6,6.9,9.2c0.1,0.5,0.5,0.8,1,0.8   h0.7c0.9,0,1.6,0.7,1.6,1.6V16c0,0.9-0.7,1.6-1.6,1.6h-0.7c-0.5,0-0.9,0.3-1,0.8C28,24.1,24.3,28,20,28c-1.8,0-3.5-0.7-4.9-1.9   c0,0-0.1-0.1-0.1-0.1C13,24.3,11.5,21.6,10.8,18.4z M37.2,38H3c-0.5,0-1-0.4-1-1c0-2.6,1.6-4.9,4-5.9l8.2-3.2c1.7,1.3,3.7,2,5.8,2   c2.1,0,4.1-0.8,5.8-2.1l8.3,3.2c2.4,0.9,4,3.3,4,5.9C38.2,37.6,37.8,38,37.2,38z" fill="#010202"/></g><g><path d="M34.4,36h-6c-0.6,0-1-0.4-1-1s0.4-1,1-1h6c0.6,0,1,0.4,1,1S35,36,34.4,36z" fill="#010202"/></g></svg>